<?xml version="1.0" standalone="no"?>
<!DOCTYPE svg PUBLIC "-//W3C//DTD SVG 20010904//EN"
 "http://www.w3.org/TR/2001/REC-SVG-20010904/DTD/svg10.dtd">
<svg version="1.0" xmlns="http://www.w3.org/2000/svg"
 width="1024.000000pt" height="1024.000000pt" viewBox="0 0 1024.000000 1024.000000"
 preserveAspectRatio="xMidYMid meet">

<g transform="translate(0.000000,1024.000000) scale(0.100000,-0.100000)"
fill="#ffff" stroke="none">
<path d="M5295 8369 c-22 -12 -53 -34 -70 -49 -38 -36 -72 -44 -124 -30 -97
26 -326 -2 -423 -51 -10 -5 -31 -9 -47 -9 -17 0 -32 -4 -35 -9 -3 -5 -23 -11
-43 -14 -45 -6 -210 -45 -238 -57 -11 -4 -42 -13 -70 -20 -59 -14 -72 -19
-145 -54 -30 -14 -59 -26 -64 -26 -4 0 -34 -27 -65 -59 -72 -75 -116 -164
-126 -251 -3 -36 -13 -75 -21 -88 -20 -30 -14 -214 9 -291 18 -60 41 -280 39
-378 -1 -39 2 -63 9 -63 6 0 19 -10 29 -22 l18 -23 112 55 c61 30 117 62 124
70 9 10 15 64 19 170 7 174 20 235 74 348 31 66 57 97 169 210 114 114 164
153 164 125 0 -5 -25 -35 -56 -68 -127 -137 -224 -289 -260 -410 -13 -44 -18
-89 -16 -170 2 -129 11 -169 38 -173 97 -13 125 -25 174 -72 61 -60 109 -155
146 -295 23 -82 28 -122 28 -225 1 -148 -14 -207 -74 -297 -24 -36 -40 -72
-40 -89 0 -33 80 -216 107 -246 30 -34 76 -51 135 -52 31 0 60 3 64 7 4 4 -12
76 -35 160 -77 274 -139 717 -128 905 10 176 72 346 175 486 63 85 280 326
294 326 17 0 6 -17 -129 -206 -257 -360 -293 -482 -259 -884 32 -375 77 -614
138 -740 53 -109 193 -230 266 -230 l34 0 -6 68 c-15 154 -18 524 -6 601 32
200 114 371 275 572 64 80 415 449 427 449 35 0 -21 -81 -188 -270 -110 -125
-200 -241 -259 -334 -72 -115 -164 -302 -184 -375 -28 -101 -44 -308 -36 -461
15 -280 68 -458 167 -565 86 -94 206 -85 331 25 109 96 180 338 129 440 -13
28 -24 36 -50 38 -52 5 -37 32 38 68 166 81 297 250 368 476 23 73 42 118 50
118 9 0 12 -9 8 -27 -3 -16 -8 -50 -12 -78 -10 -72 -41 -169 -75 -231 -49 -91
-36 -92 71 -3 34 28 65 49 71 47 18 -6 -51 -96 -117 -154 -35 -31 -64 -61 -64
-67 0 -6 30 -8 85 -4 94 7 145 27 259 102 38 25 73 45 77 45 21 0 5 -26 -48
-79 -98 -97 -237 -161 -352 -161 -111 0 -170 -37 -189 -118 -43 -184 -56 -227
-102 -317 -36 -72 -50 -111 -50 -141 0 -46 30 -172 60 -251 11 -29 15 -53 10
-53 -16 0 -67 86 -96 162 -14 38 -33 72 -40 75 -23 9 -75 -18 -85 -44 -5 -13
-9 -70 -9 -126 0 -103 -18 -328 -26 -337 -14 -13 -24 35 -24 116 0 99 -22 245
-45 300 -13 31 -18 34 -57 34 -94 1 -164 59 -257 213 -66 110 -87 131 -236
237 l-120 84 -98 4 c-62 3 -102 0 -110 -7 -8 -6 -26 -42 -41 -80 -29 -70 -69
-131 -80 -120 -4 4 2 40 14 80 24 87 27 199 6 199 -7 0 -32 -28 -55 -62 -49
-77 -117 -155 -125 -147 -3 3 15 50 40 104 44 93 68 185 47 185 -5 0 -34 -21
-63 -46 -115 -98 -148 -100 -64 -4 92 105 114 140 114 177 0 46 -19 50 -74 15
-94 -60 -242 -78 -344 -41 -50 18 -33 33 45 40 194 18 343 121 423 291 60 128
60 284 0 471 -61 192 -125 248 -259 227 -69 -11 -404 -177 -468 -232 -23 -20
-51 -43 -62 -50 -24 -17 -61 -83 -61 -109 0 -11 -10 -38 -21 -61 -16 -32 -23
-67 -26 -147 -3 -58 -10 -111 -15 -118 -5 -6 -11 -49 -14 -95 -5 -67 -2 -95
14 -144 21 -63 69 -185 103 -261 10 -24 19 -47 19 -51 0 -5 7 -23 16 -40 28
-58 5 -89 -104 -144 -116 -58 -172 -130 -172 -222 0 -54 -12 -70 -52 -70 -34
0 -161 55 -173 74 -13 21 -42 -10 -55 -57 -7 -26 -17 -52 -21 -57 -5 -6 -9
-27 -9 -48 0 -30 8 -47 36 -78 20 -22 43 -40 51 -40 8 0 37 -15 66 -33 29 -18
73 -43 100 -56 26 -14 52 -30 58 -38 6 -7 17 -13 24 -13 20 0 83 -62 94 -93 8
-21 8 -34 0 -50 -9 -16 -10 -110 -4 -357 4 -184 8 -354 8 -378 -1 -44 -23 -82
-50 -82 -7 0 -21 -4 -31 -9 -29 -15 -65 -28 -107 -40 -142 -38 -230 -66 -233
-73 -2 -4 -19 -8 -37 -8 -19 0 -37 -4 -40 -10 -3 -6 -22 -10 -41 -10 -19 0
-42 -4 -52 -10 -26 -14 -265 -80 -367 -102 -61 -12 -132 -4 -157 19 -16 14
-48 17 -191 21 -150 4 -176 7 -200 24 -19 13 -27 28 -27 48 0 33 19 80 32 80
4 0 8 25 8 55 0 45 -4 60 -23 79 -34 34 -103 76 -125 76 -10 0 -22 4 -27 9
-14 12 -79 21 -94 12 -22 -14 1 -39 68 -75 67 -35 84 -50 109 -94 11 -20 11
-29 -4 -60 -15 -32 -16 -45 -6 -105 23 -133 11 -171 -71 -216 -30 -17 -55 -21
-127 -21 -79 0 -90 -2 -90 -17 0 -23 53 -53 91 -53 45 0 131 30 159 56 32 29
127 84 145 84 7 0 15 6 18 13 3 9 44 11 167 10 89 -1 165 -5 168 -8 3 -3 16
-35 28 -72 24 -73 30 -77 144 -127 73 -32 150 -103 150 -139 0 -14 -4 -29 -10
-32 -5 -3 -16 -20 -25 -38 -26 -55 -80 -105 -145 -133 -63 -28 -78 -34 -120
-48 -25 -8 -79 -32 -121 -54 -41 -21 -127 -58 -190 -82 -63 -24 -118 -47 -124
-52 -5 -4 -17 -8 -27 -8 -31 0 -34 -46 -4 -84 14 -19 26 -39 26 -45 0 -6 5
-11 10 -11 6 0 10 -5 10 -12 0 -6 11 -26 25 -44 14 -18 25 -36 25 -41 0 -5 9
-15 20 -23 11 -8 20 -18 20 -23 0 -4 10 -19 23 -32 19 -22 37 -27 122 -36 55
-5 190 -14 300 -18 110 -5 214 -14 230 -21 36 -14 75 -49 75 -67 0 -7 5 -13
10 -13 6 0 10 -9 10 -20 0 -11 5 -20 10 -20 6 0 10 -24 10 -53 0 -69 -15 -82
-103 -91 -77 -8 -107 -22 -107 -51 1 -44 65 -86 103 -67 13 7 104 13 237 16
118 3 248 8 287 11 70 6 73 6 98 -21 25 -27 36 -94 15 -94 -5 0 -10 -5 -10
-12 0 -6 -31 -43 -68 -82 -50 -52 -81 -96 -116 -165 -26 -52 -45 -100 -42
-107 10 -27 275 -174 312 -174 23 0 94 42 167 99 32 25 72 54 88 63 16 10 52
36 79 57 28 22 59 43 70 46 11 4 20 11 20 16 0 5 6 9 13 9 7 0 22 8 33 18 11
9 79 56 151 105 73 48 138 93 145 100 7 7 40 31 73 52 33 22 85 59 117 82 31
24 60 43 65 43 4 0 22 13 38 28 17 15 84 64 150 107 66 44 136 94 155 111 55
48 74 56 121 45 23 -5 46 -14 52 -20 32 -32 147 17 237 101 14 13 39 33 55 45
69 49 154 143 182 203 11 24 14 35 32 125 5 22 15 56 24 75 15 35 72 100 87
100 12 0 50 -50 50 -65 0 -7 -7 -18 -15 -25 -9 -7 -15 -29 -15 -51 0 -21 -4
-41 -10 -44 -5 -3 -10 -48 -10 -99 0 -50 -4 -96 -9 -101 -13 -16 -31 -123 -31
-191 0 -60 1 -64 26 -70 35 -9 65 10 87 53 13 26 15 39 7 48 -6 8 -10 29 -8
47 2 25 8 33 23 33 15 0 21 -8 23 -32 3 -30 6 -33 39 -33 41 0 82 16 180 71
60 34 87 53 126 91 47 46 114 73 162 65 19 -3 62 -20 95 -36 60 -31 123 -40
135 -21 3 6 26 10 49 10 36 0 47 -5 61 -26 20 -31 40 -56 86 -108 20 -23 41
-51 48 -63 15 -29 13 -99 -4 -148 -8 -22 -15 -56 -15 -75 -1 -45 -1 -45 -185
-231 -128 -130 -155 -162 -155 -186 0 -69 56 -71 125 -5 58 55 108 92 125 92
16 0 7 -58 -14 -102 -38 -75 -2 -146 49 -98 23 21 36 69 64 226 6 33 20 79 31
102 11 22 20 46 20 52 0 5 5 19 10 30 6 11 15 29 20 40 6 11 10 29 10 40 0 11
5 20 10 20 6 0 10 58 10 154 l0 154 -46 88 c-25 49 -51 96 -57 104 -12 15 -19
26 -65 109 -30 54 -36 66 -52 106 -7 17 -16 38 -21 47 -5 10 -9 25 -9 33 0 8
-3 15 -7 15 -7 0 -48 74 -85 154 -7 17 -13 61 -12 106 1 102 28 170 68 170 9
0 16 4 16 9 0 5 10 11 23 14 12 3 55 19 96 36 40 17 79 31 87 31 8 0 33 8 57
19 23 10 58 24 77 31 19 7 44 16 55 20 11 4 52 15 90 24 70 15 117 14 167 -5
37 -15 62 1 90 58 44 90 98 82 220 -34 42 -40 85 -73 96 -73 32 0 45 25 38 72
-3 24 -8 64 -12 91 -3 26 -10 47 -15 47 -5 0 -9 13 -9 29 0 17 -4 33 -10 36
-5 3 -10 24 -10 45 0 21 -4 42 -10 45 -5 3 -10 19 -10 35 0 16 -4 32 -10 35
-5 3 -10 15 -10 26 0 10 -4 28 -10 39 -5 11 -14 29 -20 40 -5 11 -10 28 -10
38 0 10 -4 22 -9 27 -8 10 -13 33 -27 150 -8 62 16 148 55 202 24 33 153 147
202 178 69 44 127 86 143 104 11 11 25 21 32 21 7 0 14 4 16 8 3 8 59 41 163
97 99 52 127 69 200 124 39 29 83 63 99 74 16 12 51 39 78 60 26 20 51 37 55
37 4 0 41 30 82 68 72 66 74 69 79 123 5 63 -27 188 -55 210 -9 8 -38 14 -67
13 -61 0 -213 -22 -241 -34 -42 -18 -114 -31 -210 -39 -144 -12 -214 -9 -225
9 -14 21 -4 57 23 84 12 12 33 38 47 56 14 19 81 94 150 168 68 73 131 143
139 155 8 12 36 46 62 75 82 90 96 140 59 212 -11 22 -20 44 -20 51 0 12 -59
141 -69 149 -3 3 -15 21 -25 40 -10 19 -31 53 -45 75 -14 22 -33 54 -41 70 -8
17 -31 47 -50 68 -19 21 -47 56 -62 78 -25 38 -163 222 -183 246 -52 60 -281
284 -296 288 -24 8 -100 -38 -144 -87 -38 -41 -75 -94 -75 -107 0 -5 -4 -11
-8 -13 -18 -7 -182 -259 -182 -279 0 -5 -3 -9 -8 -9 -7 0 -25 -37 -37 -77 -9
-32 6 -29 59 12 26 19 51 35 56 35 6 0 10 3 10 8 0 11 51 32 81 32 33 0 44
-25 35 -75 -11 -54 -32 -87 -124 -192 -119 -137 -154 -179 -165 -200 -6 -10
-25 -33 -44 -51 -18 -18 -33 -35 -33 -38 0 -3 -33 -51 -73 -107 -93 -129 -133
-206 -146 -280 -13 -69 -17 -77 -41 -77 -24 0 -50 86 -50 167 0 32 -9 105 -19
163 -11 58 -24 152 -30 210 -5 58 -14 128 -20 155 -27 143 -48 279 -57 375 -3
30 -9 64 -14 75 -5 11 -11 36 -14 55 -13 92 -30 151 -67 235 -4 11 -20 47 -34
80 -33 75 -79 149 -127 199 -20 21 -41 48 -46 60 -30 66 -36 88 -48 161 -8 52
-26 108 -51 165 -14 30 -32 73 -41 95 -8 22 -24 51 -36 63 -24 27 -91 62 -117
62 -10 0 -21 5 -24 10 -3 6 -34 10 -69 10 -52 0 -66 4 -84 23 -12 13 -22 28
-22 34 0 22 -65 57 -120 66 -30 5 -95 11 -145 14 -49 2 -94 9 -99 14 -19 18
-139 10 -181 -12z m2490 -1363 c16 -12 17 -22 11 -92 -17 -174 -24 -232 -35
-294 -12 -62 -27 -189 -38 -312 -5 -56 -4 -58 20 -58 28 0 79 24 97 45 22 26
77 55 94 49 18 -7 23 -84 6 -84 -5 0 -10 -7 -10 -15 0 -8 -4 -23 -9 -33 -5 -9
-32 -64 -60 -122 -28 -58 -66 -132 -84 -165 -19 -33 -37 -73 -41 -88 -6 -24
-3 -29 34 -44 29 -13 40 -24 40 -39 0 -20 -84 -144 -102 -152 -5 -2 -8 -10 -8
-17 0 -7 -4 -15 -8 -17 -4 -1 -30 -34 -57 -72 -58 -80 -135 -178 -173 -221
-58 -65 -112 -149 -112 -175 0 -13 111 -12 205 1 71 10 151 20 325 38 52 5
115 15 140 20 114 28 160 26 160 -6 0 -18 -37 -63 -52 -63 -8 0 -77 -43 -108
-67 -51 -40 -109 -82 -137 -98 -18 -11 -33 -23 -33 -27 0 -4 -4 -8 -10 -8 -5
0 -46 -28 -91 -62 -45 -35 -107 -81 -138 -102 -31 -22 -62 -46 -70 -53 -7 -8
-48 -37 -90 -65 -42 -28 -88 -61 -102 -72 -15 -12 -39 -30 -54 -41 -41 -29
-77 -56 -125 -92 -24 -18 -47 -33 -51 -33 -15 0 -39 32 -45 58 -3 15 -14 50
-24 77 -48 137 -112 312 -119 330 -5 11 -13 31 -19 45 -23 57 -31 112 -37 245
-6 138 -15 259 -34 445 -9 92 -6 144 9 165 7 10 12 32 30 130 28 161 39 186
134 323 162 231 208 289 315 399 61 63 111 117 111 120 0 3 13 20 28 37 15 18
41 68 56 112 34 97 38 101 90 114 22 6 50 15 61 19 22 9 77 28 86 30 3 1 14
-5 24 -13z m-3481 -161 c-1 -17 -9 -59 -19 -95 -21 -80 -17 -279 9 -348 8 -23
13 -49 10 -57 -11 -27 -203 -128 -265 -139 -69 -12 -108 49 -124 192 -8 71 9
200 34 258 24 53 104 114 234 179 103 52 122 53 121 10z m-2 -1803 c91 -68
185 -156 248 -232 44 -53 109 -128 140 -160 14 -15 111 -99 170 -148 14 -11
78 -64 143 -117 64 -53 117 -102 118 -108 0 -7 2 -98 4 -203 2 -104 6 -236 10
-292 7 -95 9 -102 29 -102 27 0 137 90 168 138 13 20 35 62 48 92 67 148 88
171 121 130 82 -103 185 -287 218 -390 73 -228 90 -280 101 -320 7 -25 16 -54
20 -65 7 -20 17 -53 40 -135 7 -25 17 -56 22 -70 47 -115 63 -178 54 -208 -4
-11 -28 -30 -54 -43 -26 -13 -52 -29 -59 -35 -19 -18 -72 -37 -88 -30 -20 7
-19 39 5 110 25 74 25 91 -1 127 -17 24 -28 29 -61 29 -46 0 -73 -17 -168
-105 -36 -33 -93 -83 -125 -112 -33 -28 -80 -70 -105 -92 -57 -53 -89 -54
-104 -3 -6 17 -15 22 -42 22 -19 0 -34 -4 -34 -9 0 -5 -15 -16 -32 -25 -18 -9
-78 -47 -133 -86 -220 -153 -289 -199 -495 -337 -118 -78 -219 -146 -225 -150
-5 -5 -22 -14 -37 -22 -16 -8 -28 -18 -28 -23 0 -4 -4 -8 -10 -8 -5 0 -34 -16
-64 -35 -30 -19 -60 -35 -66 -35 -5 0 -10 -4 -10 -8 0 -5 -12 -15 -27 -22 -16
-8 -48 -28 -73 -45 -25 -16 -58 -37 -75 -45 -16 -8 -58 -34 -94 -57 -75 -50
-111 -56 -111 -18 0 22 15 60 30 75 3 3 16 25 29 50 61 115 83 155 90 165 8 9
67 116 98 176 7 15 20 32 28 39 8 7 15 18 15 25 0 6 9 20 20 30 11 10 20 23
20 29 0 6 9 22 20 36 11 14 20 33 20 44 0 17 -5 18 -52 12 -29 -4 -96 -11
-148 -15 -52 -5 -102 -11 -110 -14 -8 -3 -75 -8 -147 -12 -128 -6 -133 -6
-133 13 0 11 21 45 46 76 25 32 48 71 51 90 5 34 -15 87 -39 103 -21 13 -516
44 -765 48 -154 3 -183 6 -183 24 0 17 62 69 90 76 14 3 52 19 85 34 139 65
196 91 206 91 8 0 241 107 281 130 10 6 25 10 33 10 8 0 15 5 15 10 0 6 6 10
13 10 29 0 120 55 145 87 15 20 37 46 50 59 35 37 29 68 -22 104 -25 16 -49
30 -55 30 -6 0 -11 5 -11 10 0 6 -6 10 -12 10 -17 1 -108 68 -108 80 0 12 45
31 135 59 79 24 216 60 258 68 15 3 30 9 33 14 3 5 15 9 26 9 12 0 47 9 77 19
31 11 90 29 131 42 60 17 84 31 119 66 l44 43 -6 93 c-10 159 -37 527 -47 647
-6 63 -13 156 -16 205 -6 90 -6 90 24 120 16 17 48 41 71 55 23 13 60 48 84
77 23 29 44 53 47 53 3 0 40 -26 82 -58z m981 -841 c59 -27 91 -72 75 -107 -6
-13 -15 -24 -20 -24 -4 0 -8 -5 -8 -12 0 -14 -40 -58 -52 -58 -5 0 -26 -12
-48 -26 -68 -45 -74 -37 -81 101 -3 66 -1 128 4 139 11 23 61 18 130 -13z"/>
<path d="M4145 6768 c-165 -98 -185 -131 -185 -303 0 -85 4 -108 23 -145 12
-25 30 -46 40 -48 18 -4 174 57 214 83 21 14 21 16 7 67 -23 87 -17 290 12
381 9 28 -17 20 -111 -35z"/>
</g>
</svg>
